<svg viewBox="0 0 24 24" fill="none" xmlns="http://www.w3.org/2000/svg">
  <title>Lupin allergen</title>
  <path d="M12 2C10 2 8.5 3.5 8.5 5.5C8.5 6.2 8.7 6.8 9 7.3C7.8 8 7 9.4 7 11V13C7 14.1 7.9 15 9 15H11V22H13V15H15C16.1 15 17 14.1 17 13V11C17 9.4 16.2 8 15 7.3C15.3 6.8 15.5 6.2 15.5 5.5C15.5 3.5 14 2 12 2ZM12 4C12.8 4 13.5 4.7 13.5 5.5C13.5 6.3 12.8 7 12 7C11.2 7 10.5 6.3 10.5 5.5C10.5 4.7 11.2 4 12 4ZM10 10C10.6 10 11 10.4 11 11C11 11.6 10.6 12 10 12C9.4 12 9 11.6 9 11C9 10.4 9.4 10 10 10ZM14 10C14.6 10 15 10.4 15 11C15 11.6 14.6 12 14 12C13.4 12 13 11.6 13 11C13 10.4 13.4 10 14 10Z" fill="currentColor"/>
</svg>
