<svg viewBox="0 0 24 24" fill="none" xmlns="http://www.w3.org/2000/svg">
  <title>Nuts allergen</title>
  <path d="M12 2C8.7 2 6 4.7 6 8C6 9.2 6.3 10.3 6.9 11.3L3 19H9L11 15L13 19H19L15.1 11.3C15.7 10.3 16 9.2 16 8C16 4.7 13.3 2 12 2ZM12 4C12.6 4 13 4.4 13 5C13 5.6 12.6 6 12 6C11.4 6 11 5.6 11 5C11 4.4 11.4 4 12 4ZM10 8C10.6 8 11 8.4 11 9C11 9.6 10.6 10 10 10C9.4 10 9 9.6 9 9C9 8.4 9.4 8 10 8ZM14 8C14.6 8 15 8.4 15 9C15 9.6 14.6 10 14 10C13.4 10 13 9.6 13 9C13 8.4 13.4 8 14 8Z" fill="currentColor"/>
</svg>
