<svg viewBox="0 0 24 24" fill="none" xmlns="http://www.w3.org/2000/svg">
  <title>Sesame allergen</title>
  <path d="M12 2C9.8 2 8 3.8 8 6C8 6.7 8.2 7.3 8.5 7.9C6.6 8.5 5 10 4 12C2.8 14.2 2 16.8 2 19.5C2 20.9 3.1 22 4.5 22H19.5C20.9 22 22 20.9 22 19.5C22 16.8 21.2 14.2 20 12C19 10 17.4 8.5 15.5 7.9C15.8 7.3 16 6.7 16 6C16 3.8 14.2 2 12 2ZM12 4C13.1 4 14 4.9 14 6C14 7.1 13.1 8 12 8C10.9 8 10 7.1 10 6C10 4.9 10.9 4 12 4ZM8 12C8.6 12 9 12.4 9 13C9 13.6 8.6 14 8 14C7.4 14 7 13.6 7 13C7 12.4 7.4 12 8 12ZM12 12C12.6 12 13 12.4 13 13C13 13.6 12.6 14 12 14C11.4 14 11 13.6 11 13C11 12.4 11.4 12 12 12ZM16 12C16.6 12 17 12.4 17 13C17 13.6 16.6 14 16 14C15.4 14 15 13.6 15 13C15 12.4 15.4 12 16 12Z" fill="currentColor"/>
</svg>
