<svg viewBox="0 0 24 24" fill="none" xmlns="http://www.w3.org/2000/svg">
  <title>Soybeans allergen</title>
  <path d="M7 4C5.3 4 4 5.3 4 7C4 8.2 4.7 9.2 5.7 9.7C5.3 10.3 5 11.1 5 12C5 13.7 6.3 15 8 15C9 15 9.9 14.5 10.5 13.7C10.8 14.5 11.4 15.1 12.2 15.4C11.8 16.2 11.5 17.1 11.5 18C11.5 20.5 13.5 22.5 16 22.5C18.5 22.5 20.5 20.5 20.5 18C20.5 15.5 18.5 13.5 16 13.5C15.2 13.5 14.5 13.7 13.9 14.1C13.7 13.4 13.2 12.9 12.5 12.5C13.5 11.8 14 10.6 14 9.5C14 7.6 12.4 6 10.5 6C9.8 6 9.2 6.2 8.6 6.6C8.4 5.5 7.8 4 7 4Z" fill="currentColor"/>
</svg>
